<svg width="172" height="62" viewBox="0 0 172 62" fill="none" xmlns="http://www.w3.org/2000/svg">
<mask id="mask0_696_2448" style="mask-type:luminance" maskUnits="userSpaceOnUse" x="0" y="0" width="172" height="62">
<path d="M171.146 0H0.0976562V61.5776H171.146V0Z" fill="white"/>
</mask>
<g mask="url(#mask0_696_2448)">
<path d="M34.1796 48.4985H22.6704L34.1796 31.0942H45.6889L34.1796 48.4985Z" fill="black"/>
<path d="M29.9686 13.1289H41.7585L29.9686 31.0943H18.1787L29.9686 13.1289Z" fill="black"/>
<path d="M69.1674 28.2696C69.1674 29.3368 68.91 30.3375 68.3953 31.2716C67.8999 32.2053 67.1089 32.9581 66.0227 33.53C64.9553 34.1017 63.6022 34.3876 61.9631 34.3876H58.618V42.0493H54.6157V22.0945H61.9631C63.5068 22.0945 64.8219 22.3613 65.9082 22.895C66.9948 23.4286 67.8045 24.1624 68.3384 25.0963C68.8912 26.0301 69.1674 27.088 69.1674 28.2696ZM61.7914 31.1571C62.8969 31.1571 63.7164 30.9095 64.2502 30.4136C64.7838 29.8993 65.0506 29.1845 65.0506 28.2696C65.0506 26.3256 63.9643 25.3536 61.7914 25.3536H58.618V31.1571H61.7914Z" fill="black"/>
<path d="M74.8685 28.6698C75.3832 27.8312 76.0501 27.1736 76.8697 26.6971C77.7083 26.2207 78.6612 25.9824 79.7287 25.9824V30.1848H78.6707C77.4129 30.1848 76.46 30.4802 75.812 31.0714C75.1831 31.6622 74.8685 32.6912 74.8685 34.1588V42.0492H70.8662V26.2112H74.8685V28.6698Z" fill="black"/>
<path d="M88.3141 42.3063C86.7892 42.3063 85.4167 41.9728 84.197 41.3059C82.9773 40.6198 82.0146 39.6571 81.3096 38.4182C80.6235 37.1793 80.2803 35.7501 80.2803 34.1299C80.2803 32.5101 80.633 31.0805 81.3383 29.8417C82.0625 28.6028 83.044 27.6499 84.2829 26.9828C85.5218 26.2967 86.9038 25.9536 88.4287 25.9536C89.9527 25.9536 91.3348 26.2967 92.5732 26.9828C93.8124 27.6499 94.784 28.6028 95.4896 29.8417C96.214 31.0805 96.5757 32.5101 96.5757 34.1299C96.5757 35.7501 96.2046 37.1793 95.4614 38.4182C94.737 39.6571 93.7457 40.6198 92.4877 41.3059C91.2493 41.9728 89.8578 42.3063 88.3141 42.3063ZM88.3141 38.8184C89.0376 38.8184 89.715 38.6469 90.3436 38.304C90.9919 37.9419 91.5067 37.4081 91.8873 36.703C92.2687 35.9977 92.4595 35.1401 92.4595 34.1299C92.4595 32.6243 92.0592 31.4713 91.2587 30.6706C90.477 29.8511 89.5148 29.4416 88.3714 29.4416C87.2279 29.4416 86.2649 29.8511 85.4837 30.6706C84.7211 31.4713 84.3402 32.6243 84.3402 34.1299C84.3402 35.6356 84.7117 36.7984 85.4551 37.6179C86.217 38.4182 87.1706 38.8184 88.3141 38.8184Z" fill="black"/>
<path d="M102.37 38.8759H106.669V42.0492H98.3677V19.6357H102.37V38.8759Z" fill="black"/>
<path d="M109.774 24.3244C109.069 24.3244 108.478 24.1052 108.002 23.6668C107.544 23.2094 107.315 22.6471 107.315 21.9801C107.315 21.313 107.544 20.7603 108.002 20.3219C108.478 19.8645 109.069 19.6357 109.774 19.6357C110.479 19.6357 111.06 19.8645 111.518 20.3219C111.994 20.7603 112.233 21.313 112.233 21.9801C112.233 22.6471 111.994 23.2094 111.518 23.6668C111.06 24.1052 110.479 24.3244 109.774 24.3244ZM111.746 26.2112V42.0492H107.744V26.2112H111.746Z" fill="black"/>
<path d="M123.334 25.9824C125.221 25.9824 126.746 26.5828 127.908 27.7836C129.071 28.9652 129.652 30.6234 129.652 32.7579V42.0492H125.65V33.3013C125.65 32.0432 125.335 31.0808 124.706 30.4135C124.077 29.7274 123.22 29.3845 122.134 29.3845C121.028 29.3845 120.151 29.7274 119.503 30.4135C118.874 31.0808 118.56 32.0432 118.56 33.3013V42.0492H114.557V26.2112H118.56V28.1838C119.093 27.4977 119.77 26.964 120.59 26.5828C121.428 26.1825 122.343 25.9824 123.334 25.9824Z" fill="black"/>
<path d="M147.037 33.787C147.037 34.3587 146.999 34.8734 146.922 35.3308H135.344C135.439 36.4743 135.84 37.37 136.545 38.018C137.25 38.6661 138.118 38.9902 139.146 38.9902C140.633 38.9902 141.691 38.3515 142.32 37.0746H146.637C146.179 38.5994 145.302 39.8571 144.007 40.8485C142.71 41.8203 141.119 42.3063 139.232 42.3063C137.708 42.3063 136.335 41.9728 135.116 41.3059C133.915 40.6198 132.972 39.6571 132.285 38.4182C131.619 37.1793 131.284 35.7501 131.284 34.1299C131.284 32.4909 131.619 31.052 132.285 29.8131C132.952 28.5742 133.886 27.6213 135.087 26.9542C136.287 26.2872 137.669 25.9536 139.232 25.9536C140.738 25.9536 142.082 26.2776 143.264 26.9256C144.463 27.5736 145.389 28.498 146.036 29.6989C146.703 30.8805 147.037 32.243 147.037 33.787ZM142.892 32.6435C142.873 31.6141 142.501 30.7946 141.776 30.1846C141.053 29.5557 140.166 29.2414 139.118 29.2414C138.127 29.2414 137.288 29.5463 136.602 30.1563C135.935 30.7471 135.525 31.5761 135.372 32.6435H142.892Z" fill="black"/>
</g>
</svg>
